# AST/ASF file generated using VICON BodyLanguage
# -----------------------------------------------
:version 1.10
:name VICON
:units
  mass 1.0
  length 0.45
  angle deg
:documentation
   .ast/.asf automatically generated from VICON data using
   VICON BodyBuilder and BodyLanguage model FoxedUp or BRILLIANT.MOD
:root
   order TX TY TZ RX RY RZ
   axis XYZ
   position 0 0 0  
   orientation 0 0 0 
:bonedata
  begin
     id 1 
     name lhipjoint
     direction 0.57768 -0.667037 0.470475 
     length 2.36008 
     axis 0 0 0  XYZ
  end
  begin
     id 2 
     name lfemur
     direction 0.34202 -0.939693 0  
     length 6.97235  
     axis 0 0 20  XYZ
    dof rx ry rz
    limits (-160.0 20.0)
           (-70.0 70.0)
           (-60.0 70.0)
  end
  begin
     id 3 
     name ltibia
     direction 0.34202 -0.939693 0   
     length 6.93428   
     axis 0 0 20   XYZ
    dof rx
    limits (-10.0 170.0)
  end
  begin
     id 4 
     name lfoot
     direction 0.133018 -0.365463 0.921272   
     length 2.18603   
     axis -90 7.62852e-016 20   XYZ
    dof rx rz
    limits (-45.0 90.0)
           (-70.0 20.0)
  end
  begin
     id 5 
     name ltoes
     direction 1.53519e-011 -4.22055e-011 1   
     length 1.07924   
     axis -90 7.62852e-016 20   XYZ
    dof rx
    limits (-90.0 20.0)
  end
  begin
     id 6 
     name rhipjoint
     direction -0.577712 -0.667019 0.470462   
     length 2.36015  
     axis 0 0 0  XYZ 
  end
  begin
     id 7 
     name rfemur
     direction -0.34202 -0.939693 0   
     length 6.71195   
     axis 0 0 -20   XYZ
    dof rx ry rz
    limits (-160.0 20.0)
           (-70.0 70.0)
           (-70.0 60.0)
  end
  begin
     id 8 
     name rtibia
     direction -0.34202 -0.939693 0   
     length 7.04592   
     axis 0 0 -20   XYZ
    dof rx
    limits (-10.0 170.0)
 end
 begin
     id 9 
     name rfoot
     direction -0.113796 -0.312651 0.943027   
     length 2.03846  
     axis -90 -7.62852e-016 -20   XYZ
    dof rx rz
    limits (-45.0 90.0)
           (-20.0 70.0)
  end
  begin
     id 10 
     name rtoes
     direction -1.53586e-011 -4.218e-011 1   
     length 1.01562   
     axis -90 -7.62852e-016 -20   XYZ
    dof rx
    limits (-90.0 20.0)
  end
  begin
     id 11 
     name lowerback
     direction -0.0417299 0.991937 -0.119667   
     length 2.05257   
     axis 0 0 0   XYZ
    dof rx ry rz
    limits (-20.0 45.0)
           (-30.0 30.0)
           (-30.0 30.0)
  end
  begin
     id 12 
     name upperback
     direction -0.00017666 0.999999 0.00105178   
     length 2.05693   
     axis 0 0 0   XYZ
    dof rx ry rz
    limits (-20.0 45.0)
           (-30.0 30.0)
           (-30.0 30.0)
  end
  begin
     id 13 
     name thorax
     direction 0.0185169 0.998203 0.0569866   
     length 2.0932   
     axis 0 0 0   XYZ
    dof rx ry rz
    limits (-20.0 45.0)
           (-30.0 30.0)
           (-30.0 30.0)
  end
  begin
     id 14 
     name lowerneck
     direction -0.0212406 0.982645 0.184277   
     length 1.72509   
     axis 0 0 0   XYZ
    dof rx ry rz
    limits (-20.0 45.0)
           (-30.0 30.0)
           (-30.0 30.0)
  end
  begin
     id 15 
     name upperneck
     direction 0.00528579 0.965323 -0.261004   
     length 1.76294   
     axis 0 0 0   XYZ
    dof rx ry rz
    limits (-20.0 45.0)
           (-30.0 30.0)
           (-30.0 30.0)
  end
  begin
     id 16
     name head
     direction 0.00695421 0.994078 -0.108445  
     length 1.78678  
     axis 0 0 0   XYZ
    dof rx ry rz
    limits (-20.0 45.0)
           (-30.0 30.0)
           (-30.0 30.0)
  end
  begin
     id 17 
     name lclavicle
     direction 0.97277 0.211305 -0.095232  
     length 3.84823  
     axis 0 0 0   XYZ
    dof ry rz
    limits (-20.0 10.0)
           (0.0 20.0)
  end
  begin
     id 18 
     name lhumerus
     direction 1 -4.48957e-011 -1.98313e-027   
     length 4.97185   
     axis 180 -30 -90   XYZ
    dof rx ry rz
    limits (-60.0 90.0)
           (-90.0 90.0)
           (-90.0 90.0)
  end
  begin
     id 19
     name lradius
     direction 1 -4.4898e-011 7.31063e-027   
     length 3.35811   
     axis 180 -30 -90   XYZ
    dof rx
    limits (-10.0 170.0)
  end
  begin
     id 20
     name lwrist
     direction 1 -4.48938e-011 9.95048e-027   
     length 1.67905   
     axis -8.75986e-015 90 90   XYZ
    dof ry
    limits (-180.0 0.0)
 end
  begin
     id 21 
     name lhand
     direction 1 -4.4901e-011 1.9901e-026   
     length 0.622776   
     axis -1.26985e-014 90 90   XYZ
    dof rx rz
    limits (-90.0 90.0)
           (-45.0 45.0)
  end
  begin
     id 22 
     name lfingers
     direction 1 -4.48961e-011 3.98019e-026   
     length 0.502098   
     axis -2.5397e-014 90 90   XYZ
    dof rx
    limits (0.0 90.0)
  end
  begin
     id 23
     name lthumb
     direction 0.707107 -6.34933e-011 0.707107   
     length 0.720915   
     axis -90 45 2.85299e-015   XYZ
    dof rx rz
    limits (-45.0 45.0)
           (-45.0 45.0)
  end
  begin
     id 24 
     name rclavicle
     direction -0.990867 0.133739 -0.0172226   
     length 3.78845  
     axis 0 0 0   XYZ 
    dof ry rz
    limits (-10.0 20.0)
           (-20.0 0.0)
  end
  begin
     id 25 
     name rhumerus
     direction -1 -4.48972e-011 -1.99267e-027  
     length 4.96493   
     axis 180 30 90   XYZ
    dof rx ry rz
    limits (-90.0 60.0)
           (-90.0 90.0)
           (-90.0 90.0)
  end
  begin
     id 26 
     name rradius
     direction -1 -4.48969e-011 8.96093e-027   
     length 3.34929   
     axis 180 30 90   XYZ
    dof rx
    limits (-10.0 170.0)
  end
  begin
     id 27 
     name rwrist
     direction -1 -4.48953e-011 9.95048e-027   
     length 1.67464   
     axis -8.75986e-015 -90 -90   XYZ
    dof ry
    limits (-180.0 0.0)
  end
  begin
     id 28
     name rhand
     direction -1 -4.49001e-011 1.9901e-026   
     length 0.638041   
     axis -1.26985e-014 -90 -90   XYZ
    dof rx rz
    limits (-90.0 90.0)
           (-45.0 45.0)
  end
  begin
     id 29
     name rfingers
     direction -1 -4.48967e-011 3.98019e-026   
     length 0.514405   
     axis -2.5397e-014 -90 -90   XYZ
    dof rx
    limits (0.0 90.0)
  end
  begin
     id 30
     name rthumb
     direction -0.707107 -6.34904e-011 0.707107   
     length 0.738586   
     axis -90 -45 -2.85299e-015   XYZ
    dof rx rz
    limits (-45.0 45.0)
           (-45.0 45.0)
  end
:hierarchy
  begin
    root lhipjoint rhipjoint lowerback
    lhipjoint lfemur
    lfemur ltibia
    ltibia lfoot
    lfoot ltoes
    rhipjoint rfemur
    rfemur rtibia
    rtibia rfoot
    rfoot rtoes
    lowerback upperback
    upperback thorax
    thorax lowerneck lclavicle rclavicle
    lowerneck upperneck
    upperneck head
    lclavicle lhumerus
    lhumerus lradius
    lradius lwrist
    lwrist lhand lthumb
    lhand lfingers
    rclavicle rhumerus
    rhumerus rradius
    rradius rwrist
    rwrist rhand rthumb
    rhand rfingers
  end

#!OML:ASF E:\Mandelcareful walks\Project 1\Capture day 1\Session 1\Subject1.ASF
:FULLY-SPECIFIED
:DEGREES
295
root -8.85422 12.73 -16.216 395.095 41.3512 730.055
lowerback 34.0208 -1.49157 1.30845
upperback 7.7959 -1.61449 -5.53558
thorax -8.99082 -0.548241 -6.01396
lowerneck -31.8309 12.2842 5.27375
upperneck 23.4518 20.6195 -16.444
head 16.2586 6.88895 -2.7761
rclavicle 1.80894e-014 -4.68138e-014
rhumerus -26.9394 18.9073 -88.0484
rradius 50.0958
rwrist -74.2473
rhand 7.64941 -38.8707
rfingers 7.12502
rthumb 32.8936 -65.8933
lclavicle 1.80894e-014 -4.68138e-014
lhumerus 46.7441 -84.2224 55.9906
lradius 44.0209
lwrist -3.93752
lhand -15.7567 -15.6736
lfingers 7.12502
lthumb 10.4348 14.0474
rfemur -48.9667 -16.3933 -14.7918
rtibia 73.634
rfoot -32.9208 -19.8108
rtoes -31.6792
lfemur -88.0569 5.26097 -20.408
ltibia 86.5946
lfoot -20.2854 2.53312
ltoes -5.12395
296
root -8.72762 12.7337 -16.2304 394.551 41.4388 729.775
lowerback 34.2257 -1.63095 1.3521
upperback 7.62498 -1.80647 -5.69499
thorax -9.29121 -0.646511 -6.13797
lowerneck -31.4878 12.102 5.27409
upperneck 23.9832 20.055 -15.3823
head 16.1594 6.77967 -2.51823
rclavicle 4.95968e-014 -4.00054e-014
rhumerus -27.2889 18.9135 -88.4743
rradius 49.8586
rwrist -73.8978
rhand 7.19557 -39.8786
rfingers 7.12502
rthumb 32.4618 -66.9909
lclavicle 4.95968e-014 -4.00054e-014
lhumerus 75.9087 -85.9038 26.3356
lradius 44.4182
lwrist 3.15434
lhand -21.8183 -13.5003
lfingers 7.12502
lthumb 4.5842 16.4301
rfemur -47.9166 -15.9161 -14.9785
rtibia 73.0571
rfoot -32.7621 -20.1496
rtoes -31.2861
lfemur -87.422 4.80853 -20.342
ltibia 87.0082
lfoot -21.1615 2.82683
ltoes -5.55318
297
root -8.60137 12.7469 -16.2473 393.986 41.5374 729.088
lowerback 34.0401 -1.7581 1.58445
upperback 7.5252 -1.90721 -5.74554
thorax -9.355 -0.706089 -6.28137
lowerneck -31.2521 11.8345 5.08738
upperneck 24.3249 19.37 -14.2231
head 15.9517 6.62837 -2.21404
rclavicle -3.59055e-015 6.50896e-014
rhumerus -27.3655 19.2056 -88.7851
rradius 49.6671
rwrist -73.7183
rhand 6.44767 -40.7683
rfingers 7.12502
rthumb 31.7498 -68.0241
lclavicle -3.59055e-015 6.50896e-014
lhumerus 84.5709 -86.1428 17.5881
lradius 43.9706
lwrist 4.22132
lhand -22.1209 -13.2642
lfingers 7.12502
lthumb 4.29199 16.6723
rfemur -47.4144 -15.498 -14.6592
rtibia 72.5121
rfoot -32.0643 -21.0939
rtoes -31.8441
lfemur -87.075 4.40168 -19.852
ltibia 87.3307
lfoot -21.8799 3.20312
ltoes -6.01535
298
root -8.48069 12.7716 -16.2628 393.339 41.34 728.114
lowerback 33.7282 -1.69703 1.53773
upperback 7.59698 -1.83813 -5.65083
thorax -9.14011 -0.673809 -6.17978
lowerneck -31.8956 11.5928 4.92976
upperneck 24.8176 18.8453 -13.3673
head 16.0844 6.44458 -1.96724
rclavicle -1.20265e-014 -1.18525e-013
rhumerus -27.0497 19.7614 -88.7905
rradius 49.6704
rwrist -73.5793
rhand 5.64294 -41.102
rfingers 7.12502
rthumb 30.983 -68.5067
lclavicle -1.20265e-014 -1.18525e-013
lhumerus 88.0851 -85.9656 14.2175
lradius 43.4307
lwrist 4.7932
lhand -22.9918 -13.6588
lfingers 7.12502
lthumb 3.45101 16.293
rfemur -47.4206 -15.1342 -14.0276
rtibia 72.0117
rfoot -30.9851 -22.1452
rtoes -32.8982
lfemur -86.8108 4.30148 -19.2483
ltibia 87.569
lfoot -22.4208 3.72226
ltoes -7.06409
299
root -8.36417 12.8053 -16.2782 392.756 41.0689 727.32
lowerback 33.47 -1.66689 1.37821
upperback 7.79583 -1.82632 -5.51031
thorax -8.8049 -0.65868 -5.94446
lowerneck -32.9714 11.3841 4.84976
upperneck 25.4068 18.4247 -12.7332
head 16.4183 6.2537 -1.78117
rclavicle 5.96354e-015 3.30976e-014
rhumerus -26.5529 20.1318 -88.5181
rradius 50.0054
rwrist -73.5723
rhand 5.25932 -41.4174
rfingers 7.12502
rthumb 30.6173 -68.8911
lclavicle 5.96354e-015 3.30976e-014
lhumerus 80.722 -85.4332 21.766
lradius 42.9586
lwrist 3.01465
lhand -21.675 -13.6703
lfingers 7.12502
lthumb 4.72255 16.2571
rfemur -47.5561 -15.1391 -13.375
rtibia 71.5884
rfoot -30.2051 -22.3674
rtoes -31.5254
lfemur -86.3527 4.03448 -18.7332
ltibia 87.6638
lfoot -22.9185 4.60475
ltoes -8.86407
